<svg width="41" height="35" viewBox="0 0 41 35" fill="none" xmlns="http://www.w3.org/2000/svg">
<path d="M30 34V30.3333C30 28.3884 29.2362 26.5232 27.8765 25.1479C26.5169 23.7726 24.6728 23 22.75 23H8.25C6.32718 23 4.48311 23.7726 3.12348 25.1479C1.76384 26.5232 1 28.3884 1 30.3333V34" stroke="#FFB600" stroke-width="2" stroke-linecap="square" stroke-linejoin="round"/>
<path d="M15 16C18.866 16 22 12.866 22 9C22 5.13401 18.866 2 15 2C11.134 2 8 5.13401 8 9C8 12.866 11.134 16 15 16Z" stroke="#FFB600" stroke-width="2" stroke-linecap="square" stroke-linejoin="round"/>
<path d="M40 34V30.5928C39.9989 29.083 39.5073 27.6163 38.6023 26.423C37.6973 25.2297 36.4302 24.3775 35 24" stroke="#FFB600" stroke-width="2" stroke-linecap="square" stroke-linejoin="round"/>
<path d="M28 2C29.4303 2.39796 30.698 3.30191 31.6033 4.56933C32.5086 5.83676 33 7.39556 33 9C33 10.6044 32.5086 12.1632 31.6033 13.4307C30.698 14.6981 29.4303 15.602 28 16" stroke="#FFB600" stroke-width="2" stroke-linecap="square" stroke-linejoin="round"/>
</svg>
