<svg width="170" height="16" viewBox="0 0 170 16" fill="none" xmlns="http://www.w3.org/2000/svg">
<path fill-rule="evenodd" clip-rule="evenodd" d="M169.24 4.79867C168.549 3.01996 162.613 2.27104 144.773 1.64693C128.126 1.05403 108.747 -0.662282 74.8891 0.273881C49.0086 0.991607 16.7837 3.86251 16.7837 5.45399C16.7837 6.60859 18.04 6.63979 30.038 5.61001C41.1251 4.67385 46.81 4.45541 53.7513 4.20577C25.9235 6.63979 19.9874 8.23128 5.16263 9.76034C-4.13423 10.7277 1.2994 13.505 4.6915 13.2241C4.72291 13.2241 47.9722 9.72914 52.0552 9.91637C52.4321 9.94758 48.3176 10.5093 42.884 11.1646C27.7138 13.0369 30.6348 16.1571 42.0046 14.7217C80.2599 9.88485 116.254 8.38699 143.987 10.4778C152.75 11.1331 153.724 11.1331 153.724 10.3217C153.724 8.88627 151.337 7.7944 147.599 7.57596C141.757 7.2015 119.269 6.1402 109.093 5.82814C108.308 5.79694 108.684 5.20434 109.375 5.14193C113.521 4.73626 146.437 5.048 159.377 5.48488C168.894 5.79694 169.585 5.76604 169.24 4.79867Z" fill="#FFB600"/>
</svg>
